<?xml version="1.0" encoding="utf-8"?>
<!-- Generator: Adobe Illustrator 23.0.5, SVG Export Plug-In . SVG Version: 6.00 Build 0)  -->
<svg version="1.1" xmlns="http://www.w3.org/2000/svg" xmlns:xlink="http://www.w3.org/1999/xlink" x="0px" y="0px"
	 viewBox="0 0 278 291" style="enable-background:new 0 0 278 291;" xml:space="preserve">
<style type="text/css">
	.st0{fill:none;stroke:#000;stroke-miterlimit:10;}
	.st1{fill-rule:evenodd;clip-rule:evenodd;}
</style>
<g id="Layer_1">
	<g>
		<line class="st0" x1="61.5" y1="67.5" x2="61.5" y2="262"/>
		<line class="st1" x1="61.5" y1="67.5" x2="61.5" y2="262"/>
	</g>
	<path class="st0" d="M168.5,224.5"/>
	<path class="st0" d="M28.5,224.5"/>
	<line class="st0" x1="61.5" y1="67.5" x2="115.5" y2="67.5"/>
	<line class="st0" x1="115.5" y1="67.5" x2="115.5" y2="98.5"/>
	<path class="st0" d="M115,98.5"/>
	<line class="st0" x1="25.5" y1="262.5" x2="233.5" y2="262.5"/>
	<path class="st0" d="M88.5,241.5"/>
	<path class="st0" d="M138.5,243.5"/>
	<path class="st0" d="M79.5,142.5"/>
	<path class="st0" d="M115,98.5c10.91,0,19.62,9.45,18.38,20.61c-0.94,8.48-7.79,15.34-16.28,16.28
		c-11.16,1.23-20.61-7.47-20.61-18.38C96.5,106.78,104.78,98.5,115,98.5"/>
	<line class="st0" x1="114.5" y1="135.5" x2="114.5" y2="210"/>
	<line class="st0" x1="114.5" y1="210.5" x2="88.5" y2="241.5"/>
	<line class="st0" x1="114.5" y1="210.5" x2="138.5" y2="243.5"/>
	<path class="st0" d="M146.5,184.5"/>
	<path class="st0" d="M114.5,161.5"/>
	<path class="st0" d="M88.5,193.5"/>
	<path class="st0" d="M114.5,161.5"/>
	<line class="st0" x1="114.5" y1="172.5" x2="154.5" y2="140.5"/>
	<line class="st0" x1="114.5" y1="172.5" x2="79.5" y2="142.5"/>
</g>
<g id="Layer_2">
</g>
</svg>
